<svg xmlns="http://www.w3.org/2000/svg" viewBox="0 0 562 76" width="562" height="76" preserveAspectRatio="xMidYMid meet" style="width: 100%; height: 100%; transform: translate3d(0px, 0px, 0px); content-visibility: visible;"><defs><clipPath id="__lottie_element_564"><rect width="562" height="76" x="0" y="0"></rect></clipPath><clipPath id="__lottie_element_567"><path d="M0,0 L848,0 L848,89 L0,89z"></path></clipPath><filter id="__lottie_element_674" filterUnits="objectBoundingBox" x="0%" y="0%" width="100%" height="100%"><feComponentTransfer in="SourceGraphic"><feFuncA type="table" tableValues="1.0 0.0"></feFuncA></feComponentTransfer></filter><mask id="__lottie_element_673" mask-type="alpha"><g filter="url(#__lottie_element_674)"><rect width="562" height="76" x="0" y="0" fill="#ffffff" opacity="0"></rect><g style="display: block;" transform="matrix(0.7225000262260437,0,0,0.7225000262260437,-329.0561828613281,76.40478515625)" opacity="1"><g opacity="1" transform="matrix(1,0,0,1,800.801025390625,46.345001220703125)"><path fill="rgb(43,44,93)" fill-opacity="1" d=" M5.7230000495910645,0 C5.7230000495910645,3.1610000133514404 0.7229999899864197,7.8480000495910645 -2.437000036239624,7.8480000495910645 C-5.5980000495910645,7.8480000495910645 -5.7230000495910645,3.1610000133514404 -5.7230000495910645,0 C-5.7230000495910645,-2.5290000438690186 -1.5820000171661377,-11.861000061035156 0.6919999718666077,-12.618000030517578 C1.2610000371932983,-12.807000160217285 5.931000232696533,-7.534999847412109 6.563000202178955,-7.534999847412109 C9.722999572753906,-7.534999847412109 5.7230000495910645,-3.1610000133514404 5.7230000495910645,0z"></path></g></g></g></mask></defs><g clip-path="url(#__lottie_element_564)"><g transform="matrix(0.2626499831676483,0,0,0.2626499831676483,-292.20196533203125,-59.62239074707031)" opacity="1" style="display: block;"><g opacity="1" transform="matrix(1,0,0,1,2352.98388671875,299.5459899902344)"><path fill="rgb(166,215,251)" fill-opacity="1" d=" M-1068.302978515625,239.84100341796875 C-720.7670288085938,-143.072998046875 554.3140258789062,-146.3090057373047 1437.2340087890625,232.02699279785156 C1437.2340087890625,232.02699279785156 -1068.302978515625,239.84100341796875 -1068.302978515625,239.84100341796875z"></path></g></g><g transform="matrix(0.2626499831676483,0,0,0.2626499831676483,-367.001953125,-42.62238311767578)" opacity="1" style="display: block;"><g opacity="1" transform="matrix(1,0,0,1,2352.98388671875,299.5459899902344)"><path fill="rgb(229,244,255)" fill-opacity="1" d=" M-958.27099609375,178.35299682617188 C-571.1380004882812,-222.9320068359375 1096.8299560546875,-59.07400131225586 1605.52001953125,177.01100158691406 C1605.52001953125,177.01100158691406 -958.27099609375,178.35299682617188 -958.27099609375,178.35299682617188z"></path></g><g opacity="1" transform="matrix(1,0,0,1,2992,379.68798828125)"><path fill="rgb(208,231,244)" fill-opacity="1" d=" M1028.1400146484375,-98.21099853515625 C1028.1400146484375,-98.21099853515625 1028.1400146484375,98.21099853515625 1028.1400146484375,98.21099853515625 C1028.1400146484375,98.21099853515625 -1028.1400146484375,98.21099853515625 -1028.1400146484375,98.21099853515625 C-708.9600219726562,-34.37300109863281 475.7099914550781,-87.98100280761719 1028.1400146484375,-98.21099853515625z"></path></g></g><g style="display: block;" transform="matrix(0.7225000262260437,0,0,0.7225000262260437,-329.0561828613281,76.40478515625)" opacity="1"><g opacity="1" transform="matrix(1,0,0,1,802.3499755859375,69.24700164794922)"><path fill="rgb(0,167,117)" fill-opacity="1" d=" M-13.857000350952148,-8 C-13.857000350952148,-8 -13.857000350952148,-8 -13.857000350952148,-8 C-12.727999687194824,-8.652000427246094 -10.89799976348877,-8.652000427246094 -9.769000053405762,-8 C-9.769000053405762,-8 13.857000350952148,5.639999866485596 13.857000350952148,5.639999866485596 C14.986000061035156,6.291999816894531 14.986000061035156,7.3480000495910645 13.857000350952148,8 C13.857000350952148,8 13.857000350952148,8 13.857000350952148,8 C12.727999687194824,8.652000427246094 10.89799976348877,8.652000427246094 9.769000053405762,8 C9.769000053405762,8 -13.857000350952148,-5.639999866485596 -13.857000350952148,-5.639999866485596 C-14.986000061035156,-6.291999816894531 -14.986000061035156,-7.3480000495910645 -13.857000350952148,-8z"></path></g><g opacity="1" transform="matrix(1,0,0,1,801.2260131835938,68.59700012207031)"><path fill="rgb(43,44,93)" fill-opacity="1" d=" M-3.4660000801086426,-2.000999927520752 C-3.4660000801086426,-2.000999927520752 -3.4660000801086426,-2.000999927520752 -3.4660000801086426,-2.000999927520752 C-2.3369998931884766,-2.6530001163482666 -0.5070000290870667,-2.6530001163482666 0.621999979019165,-2.000999927520752 C0.621999979019165,-2.000999927520752 3.4660000801086426,-0.35899999737739563 3.4660000801086426,-0.35899999737739563 C4.59499979019165,0.2930000126361847 4.59499979019165,1.3489999771118164 3.4660000801086426,2.000999927520752 C3.4660000801086426,2.000999927520752 3.4660000801086426,2.000999927520752 3.4660000801086426,2.000999927520752 C2.3369998931884766,2.6530001163482666 0.5070000290870667,2.6530001163482666 -0.621999979019165,2.000999927520752 C-0.621999979019165,2.000999927520752 -3.4660000801086426,0.35899999737739563 -3.4660000801086426,0.35899999737739563 C-4.59499979019165,-0.2930000126361847 -4.59499979019165,-1.3489999771118164 -3.4660000801086426,-2.000999927520752z"></path></g><g opacity="1" transform="matrix(1,0,0,1,808.0980224609375,66.18199920654297)"><path fill="rgb(0,167,117)" fill-opacity="1" d=" M-13.857000350952148,-8 C-13.857000350952148,-8 -13.857000350952148,-8 -13.857000350952148,-8 C-12.727999687194824,-8.652000427246094 -10.89799976348877,-8.652000427246094 -9.769000053405762,-8 C-9.769000053405762,-8 13.857000350952148,5.639999866485596 13.857000350952148,5.639999866485596 C14.986000061035156,6.291999816894531 14.986000061035156,7.3480000495910645 13.857000350952148,8 C13.857000350952148,8 13.857000350952148,8 13.857000350952148,8 C12.727999687194824,8.652000427246094 10.89799976348877,8.652000427246094 9.769000053405762,8 C9.769000053405762,8 -13.857000350952148,-5.639999866485596 -13.857000350952148,-5.639999866485596 C-14.986000061035156,-6.291999816894531 -14.986000061035156,-7.3480000495910645 -13.857000350952148,-8z"></path></g><g opacity="1" transform="matrix(1,0,0,1,808.510009765625,66.18099975585938)"><path fill="rgb(43,44,93)" fill-opacity="1" d=" M-3.4660000801086426,-2.000999927520752 C-3.4660000801086426,-2.000999927520752 -3.4660000801086426,-2.000999927520752 -3.4660000801086426,-2.000999927520752 C-2.3369998931884766,-2.6530001163482666 -0.5070000290870667,-2.6530001163482666 0.621999979019165,-2.000999927520752 C0.621999979019165,-2.000999927520752 3.4660000801086426,-0.35899999737739563 3.4660000801086426,-0.35899999737739563 C4.59499979019165,0.2930000126361847 4.59499979019165,1.3489999771118164 3.4660000801086426,2.000999927520752 C3.4660000801086426,2.000999927520752 3.4660000801086426,2.000999927520752 3.4660000801086426,2.000999927520752 C2.3369998931884766,2.6530001163482666 0.5070000290870667,2.6530001163482666 -0.621999979019165,2.000999927520752 C-0.621999979019165,2.000999927520752 -3.4660000801086426,0.35899999737739563 -3.4660000801086426,0.35899999737739563 C-4.59499979019165,-0.2930000126361847 -4.59499979019165,-1.3489999771118164 -3.4660000801086426,-2.000999927520752z"></path></g><g opacity="1" transform="matrix(1,0,0,1,808.5590209960938,56.0890007019043)"><path stroke-linecap="round" stroke-linejoin="miter" fill-opacity="0" stroke-miterlimit="4" stroke="rgb(43,44,93)" stroke-opacity="1" stroke-width="5.364" d=" M-4.236999988555908,-8.42300033569336 C-4.236999988555908,-7.211999893188477 1.940000057220459,-1.9170000553131104 4.0879998207092285,1.3860000371932983 C4.318999767303467,1.7419999837875366 4.2729997634887695,2.2009999752044678 4.010000228881836,2.5339999198913574 C4.010000228881836,2.5339999198913574 -0.6520000100135803,8.42300033569336 -0.6520000100135803,8.42300033569336"></path></g><g opacity="1" transform="matrix(1,0,0,1,801.2839965820312,57.29600143432617)"><path stroke-linecap="round" stroke-linejoin="miter" fill-opacity="0" stroke-miterlimit="4" stroke="rgb(43,44,93)" stroke-opacity="1" stroke-width="5.364" d=" M-4.005000114440918,-9.630000114440918 C-4.005000114440918,-9.630000114440918 1.7879999876022339,-1.090000033378601 3.872999906539917,2.5829999446868896 C4.083000183105469,2.953000068664551 4.039000034332275,3.4079999923706055 3.7750000953674316,3.740999937057495 C3.7750000953674316,3.740999937057495 -0.8870000243186951,9.630000114440918 -0.8870000243186951,9.630000114440918"></path></g></g><g style="display: block;" transform="matrix(0.7225000262260437,-0.0000046102754822641145,0.0000046102754822641145,0.7225000262260437,-329.05633544921875,76.40848541259766)" opacity="1"><g opacity="1" transform="matrix(1,0,0,1,814.8880004882812,48.10599899291992)"><path fill="rgb(252,209,169)" fill-opacity="1" d=" M0,-3.0815000534057617 C1.700679898262024,-3.0815000534057617 3.0815000534057617,-1.700679898262024 3.0815000534057617,0 C3.0815000534057617,1.700679898262024 1.700679898262024,3.0815000534057617 0,3.0815000534057617 C-1.700679898262024,3.0815000534057617 -3.0815000534057617,1.700679898262024 -3.0815000534057617,0 C-3.0815000534057617,-1.700679898262024 -1.700679898262024,-3.0815000534057617 0,-3.0815000534057617z"></path></g><g opacity="1" transform="matrix(1,0,0,1,809.4929809570312,47.18299865722656)"><path fill="rgb(43,44,93)" fill-opacity="1" d=" M-13.857000350952148,-8 C-13.857000350952148,-8 -13.857000350952148,-8 -13.857000350952148,-8 C-13.548999786376953,-8.178000450134277 -13.050000190734863,-8.178000450134277 -12.741999626159668,-8 C-12.741999626159668,-8 13.857000350952148,7.355999946594238 13.857000350952148,7.355999946594238 C14.164999961853027,7.533999919891357 14.164999961853027,7.822000026702881 13.857000350952148,8 C13.857000350952148,8 13.857000350952148,8 13.857000350952148,8 C13.548999786376953,8.178000450134277 13.050000190734863,8.178000450134277 12.741999626159668,8 C12.741999626159668,8 -13.857000350952148,-7.355999946594238 -13.857000350952148,-7.355999946594238 C-14.164999961853027,-7.533999919891357 -14.164999961853027,-7.822000026702881 -13.857000350952148,-8z"></path></g><g opacity="1" transform="matrix(1,0,0,1,809.3839721679688,41.0629997253418)"><path stroke-linecap="butt" stroke-linejoin="miter" fill-opacity="0" stroke-miterlimit="4" stroke="rgb(255,51,102)" stroke-opacity="1" stroke-width="5.364" d=" M-4.622000217437744,-5.2820000648498535 C-4.622000217437744,-5.2820000648498535 -1.1009999513626099,-0.8799999952316284 -1.1009999513626099,-0.8799999952316284 C-1.1009999513626099,-0.8799999952316284 4.622000217437744,5.2820000648498535 4.622000217437744,5.2820000648498535"></path></g></g><g style="display: block;" transform="matrix(0.7225000262260437,0,0,0.7225000262260437,-329.0561828613281,76.40478515625)" opacity="1"><g opacity="1" transform="matrix(1,0,0,1,800.801025390625,46.345001220703125)"><path fill="rgb(43,44,93)" fill-opacity="1" d=" M5.7230000495910645,0 C5.7230000495910645,3.1610000133514404 3.1610000133514404,5.7230000495910645 0.0010000000474974513,5.7230000495910645 C-3.1600000858306885,5.7230000495910645 -5.7230000495910645,3.1610000133514404 -5.7230000495910645,0 C-5.7230000495910645,-3.1610000133514404 -3.1600000858306885,-5.7230000495910645 0.0010000000474974513,-5.7230000495910645 C3.1610000133514404,-5.7230000495910645 5.7230000495910645,-3.1610000133514404 5.7230000495910645,0z"></path></g></g><g style="display: block;" transform="matrix(0.7225000262260437,0,0,0.7225000262260437,-329.0561828613281,76.40478515625)" opacity="1"><g opacity="1" transform="matrix(1,0,0,1,805.4920043945312,37.95899963378906)"><path fill="rgb(255,51,102)" fill-opacity="1" d=" M8.3149995803833,0 C8.3149995803833,4.5920000076293945 4.5920000076293945,8.3149995803833 0,8.3149995803833 C-4.5920000076293945,8.3149995803833 -8.3149995803833,4.5920000076293945 -8.3149995803833,0 C-8.3149995803833,-4.5920000076293945 -4.5920000076293945,-8.3149995803833 0,-8.3149995803833 C4.5920000076293945,-8.3149995803833 8.3149995803833,-4.5920000076293945 8.3149995803833,0z"></path></g></g><g mask="url(#__lottie_element_673)" style="display: block;"><g transform="matrix(0.7225000262260437,0,0,0.7225000262260437,-329.0561828613281,76.40478515625)" opacity="1"><g opacity="1" transform="matrix(1,0,0,1,807.3200073242188,33.849998474121094)"><path fill="rgb(211,211,251)" fill-opacity="1" d=" M4.109000205993652,2.371999979019165 C1.840000033378601,3.681999921798706 -1.840000033378601,3.681999921798706 -4.109000205993652,2.371999979019165 C-6.377999782562256,1.062000036239624 -6.377999782562256,-1.062000036239624 -4.109000205993652,-2.371999979019165 C-1.840000033378601,-3.681999921798706 1.840000033378601,-3.681999921798706 4.109000205993652,-2.371999979019165 C6.377999782562256,-1.062000036239624 6.377999782562256,1.062000036239624 4.109000205993652,2.371999979019165z"></path></g><g opacity="1" transform="matrix(1,0,0,1,806.4769897460938,24.011999130249023)"><path fill="rgb(211,211,251)" fill-opacity="1" d=" M0,-1.877500057220459 C1.0361922979354858,-1.877500057220459 1.877500057220459,-1.0361922979354858 1.877500057220459,0 C1.877500057220459,1.0361922979354858 1.0361922979354858,1.877500057220459 0,1.877500057220459 C-1.0361922979354858,1.877500057220459 -1.877500057220459,1.0361922979354858 -1.877500057220459,0 C-1.877500057220459,-1.0361922979354858 -1.0361922979354858,-1.877500057220459 0,-1.877500057220459z"></path></g><g opacity="1" transform="matrix(1,0,0,1,810.0989990234375,29.643999099731445)"><path fill="rgb(252,209,169)" fill-opacity="1" d=" M0,-4.0229997634887695 C2.2202935218811035,-4.0229997634887695 4.0229997634887695,-2.2202935218811035 4.0229997634887695,0 C4.0229997634887695,2.2202935218811035 2.2202935218811035,4.0229997634887695 0,4.0229997634887695 C-2.2202935218811035,4.0229997634887695 -4.0229997634887695,2.2202935218811035 -4.0229997634887695,0 C-4.0229997634887695,-2.2202935218811035 -2.2202935218811035,-4.0229997634887695 0,-4.0229997634887695z"></path></g><g opacity="1" transform="matrix(1,0,0,1,809.4099731445312,28.500999450683594)"><path fill="rgb(255,51,102)" fill-opacity="1" d=" M0.7319999933242798,0.6050000190734863 C2.6080000400543213,-0.5860000252723694 4.828999996185303,0.15700000524520874 3.638000011444092,-1.718999981880188 C2.447000026702881,-3.5950000286102295 0.2849999964237213,-3.490999937057495 -1.590999960899353,-2.299999952316284 C-3.4670000076293945,-1.1089999675750732 -4.692999839782715,0.628000020980835 -3.502000093460083,2.503999948501587 C-2.311000108718872,4.380000114440918 -1.1440000534057617,1.7960000038146973 0.7319999933242798,0.6050000190734863z"></path></g><g opacity="1" transform="matrix(1,0,0,1,809.56201171875,29.687999725341797)"><path stroke-linecap="round" stroke-linejoin="miter" fill-opacity="0" stroke-miterlimit="4" stroke="rgb(211,211,251)" stroke-opacity="1" stroke-width="2.324" d=" M-4.067999839782715,2.3239998817443848 C-2.7119998931884766,0.7749999761581421 0.8140000104904175,-2.3239998817443848 4.067999839782715,-2.3239998817443848"></path></g><g opacity="1" transform="matrix(1,0,0,1,790.1190185546875,28.618999481201172)"><path stroke-linecap="round" stroke-linejoin="round" fill-opacity="0" stroke="rgb(211,211,251)" stroke-opacity="1" stroke-width="5.364" d=" M15.420000076293945,5.473999977111816 C15.420000076293945,5.473999977111816 4.170000076293945,-1.8969999551773071 4.170000076293945,-1.8969999551773071 C3.819999933242798,-2.127000093460083 3.368000030517578,-2.13100004196167 3.013000011444092,-1.909000039100647 C3.013000011444092,-1.909000039100647 1.3299740552902222,-0.5329870581626892 1.3299740552902222,-0.5329870581626892 C0.8749740719795227,-0.2479870319366455 -1.8493376970291138,-1.7273896932601929 -2.19233775138855,-2.1403896808624268 C-2.19233775138855,-2.1403896808624268 -6.317259788513184,-3.7035973072052 -6.317259788513184,-3.7035973072052 C-6.543259620666504,-3.975597381591797 -7.421337604522705,-3.692934989929199 -7.7743377685546875,-3.6599349975585938 C-7.7743377685546875,-3.6599349975585938 -15.420000076293945,-4.796999931335449 -15.420000076293945,-4.796999931335449"></path></g></g></g><g style="display: block;" transform="matrix(0.7136048674583435,-0.11302389949560165,0.11302389949560165,0.7136048674583435,-326.11334228515625,167.12449645996094)" opacity="1"><g opacity="1" transform="matrix(1,0,0,1,791.0050048828125,52.465999603271484)"><path fill="rgb(43,44,93)" fill-opacity="1" d=" M-23.406999588012695,-12.656999588012695 C-23.406999588012695,-12.656999588012695 -23.406999588012695,-12.656999588012695 -23.406999588012695,-12.656999588012695 C-23.099000930786133,-12.835000038146973 -22.600000381469727,-12.835000038146973 -22.29199981689453,-12.656999588012695 C-22.29199981689453,-12.656999588012695 4.307000160217285,2.697999954223633 4.307000160217285,2.697999954223633 C4.614999771118164,2.875999927520752 4.614999771118164,3.1640000343322754 4.307000160217285,3.3420000076293945 C4.307000160217285,3.3420000076293945 4.307000160217285,3.3420000076293945 4.307000160217285,3.3420000076293945 C3.999000072479248,3.5199999809265137 3.5,3.5199999809265137 3.191999912261963,3.3420000076293945 C3.191999912261963,3.3420000076293945 -23.406999588012695,-12.013999938964844 -23.406999588012695,-12.013999938964844 C-23.71500015258789,-12.192000389099121 -23.71500015258789,-12.479000091552734 -23.406999588012695,-12.656999588012695z"></path></g><g opacity="1" transform="matrix(1,0,0,1,794.6380004882812,53.388999938964844)"><path fill="rgb(252,209,169)" fill-opacity="1" d=" M0,-3.0815000534057617 C1.700679898262024,-3.0815000534057617 3.0815000534057617,-1.700679898262024 3.0815000534057617,0 C3.0815000534057617,1.700679898262024 1.700679898262024,3.0815000534057617 0,3.0815000534057617 C-1.700679898262024,3.0815000534057617 -3.0815000534057617,1.700679898262024 -3.0815000534057617,0 C-3.0815000534057617,-1.700679898262024 -1.700679898262024,-3.0815000534057617 0,-3.0815000534057617z"></path></g><g opacity="1" transform="matrix(1,0,0,1,796.458984375,44.262001037597656)"><path stroke-linecap="butt" stroke-linejoin="miter" fill-opacity="0" stroke-miterlimit="4" stroke="rgb(255,51,102)" stroke-opacity="1" stroke-width="5.364" d=" M3.938999891281128,-7.107999801635742 C3.938999891281128,-7.107999801635742 -3.4179999828338623,-2.681999921798706 -3.4179999828338623,-2.681999921798706 C-3.7839999198913574,-2.4619998931884766 -3.984999895095825,-2.0450000762939453 -3.928999900817871,-1.621000051498413 C-3.928999900817871,-1.621000051498413 -2.7669999599456787,7.107999801635742 -2.7669999599456787,7.107999801635742"></path></g></g><g style="display: block;" transform="matrix(-0.7292193174362183,0.05099198594689369,0.05099198594689369,0.7292193174362183,641.115234375,23.644336700439453)" opacity="1"><g opacity="1" transform="matrix(1,0,0,1,808.0980224609375,66.18199920654297)"><path fill="rgb(0,167,117)" fill-opacity="1" d=" M-19.670000076293945,-7.656000137329102 C-19.670000076293945,-7.656000137329102 -19.670000076293945,-7.656000137329102 -19.670000076293945,-7.656000137329102 C-18.541000366210938,-8.307999610900879 -15.77299976348877,-9.244999885559082 -14.644000053405762,-8.593000411987305 C-14.644000053405762,-8.593000411987305 23.045000076293945,6.202000141143799 23.045000076293945,6.202000141143799 C24.173999786376953,6.854000091552734 23.236000061035156,8.847999572753906 22.10700035095215,9.5 C22.10700035095215,9.5 22.10700035095215,9.5 22.10700035095215,9.5 C20.97800064086914,10.152000427246094 18.834999084472656,10.619999885559082 17.70599937438965,9.968000411987305 C17.70599937438965,9.968000411987305 -19.98200035095215,-4.827000141143799 -19.98200035095215,-4.827000141143799 C-21.111000061035156,-5.479000091552734 -20.798999786376953,-7.004000186920166 -19.670000076293945,-7.656000137329102z"></path></g><g opacity="1" transform="matrix(1,0,0,1,801.2260131835938,68.59700012207031)"><path fill="rgb(43,44,93)" fill-opacity="1" d="M0 0"></path></g><g opacity="1" transform="matrix(1,0,0,1,813.635009765625,64.93099975585938)"><path fill="rgb(43,44,93)" fill-opacity="1" d=" M-0.40400001406669617,2.811000108718872 C-0.40400001406669617,2.811000108718872 -0.40400001406669617,2.811000108718872 -0.40400001406669617,2.811000108718872 C0.7250000238418579,2.1589999198913574 2.555000066757202,2.1589999198913574 3.684000015258789,2.811000108718872 C3.684000015258789,2.811000108718872 6.5289998054504395,4.453000068664551 6.5289998054504395,4.453000068664551 C7.6579999923706055,5.105000019073486 7.6579999923706055,6.1620001792907715 6.5289998054504395,6.814000129699707 C6.5289998054504395,6.814000129699707 6.5289998054504395,6.814000129699707 6.5289998054504395,6.814000129699707 C5.400000095367432,7.466000080108643 3.569999933242798,7.466000080108643 2.440999984741211,6.814000129699707 C2.440999984741211,6.814000129699707 -0.40400001406669617,5.171999931335449 -0.40400001406669617,5.171999931335449 C-1.5329999923706055,4.519999980926514 -1.5329999923706055,3.4630000591278076 -0.40400001406669617,2.811000108718872z"></path></g><g opacity="1" transform="matrix(1,0,0,1,800.801025390625,46.345001220703125)"><path fill="rgb(43,44,93)" fill-opacity="1" d=" M5.7230000495910645,0 C5.7230000495910645,3.1610000133514404 3.1610000133514404,5.7230000495910645 0.0010000000474974513,5.7230000495910645 C-3.1600000858306885,5.7230000495910645 -5.7230000495910645,3.1610000133514404 -5.7230000495910645,0 C-5.7230000495910645,-3.1610000133514404 -3.1600000858306885,-5.7230000495910645 0.0010000000474974513,-5.7230000495910645 C3.1610000133514404,-5.7230000495910645 5.7230000495910645,-3.1610000133514404 5.7230000495910645,0z"></path></g><g opacity="1" transform="matrix(1,0,0,1,814.8880004882812,48.10599899291992)"><path fill="rgb(252,209,169)" fill-opacity="1" d=" M0,-3.0815000534057617 C1.700679898262024,-3.0815000534057617 3.0815000534057617,-1.700679898262024 3.0815000534057617,0 C3.0815000534057617,1.700679898262024 1.700679898262024,3.0815000534057617 0,3.0815000534057617 C-1.700679898262024,3.0815000534057617 -3.0815000534057617,1.700679898262024 -3.0815000534057617,0 C-3.0815000534057617,-1.700679898262024 -1.700679898262024,-3.0815000534057617 0,-3.0815000534057617z"></path></g><g opacity="1" transform="matrix(1,0,0,1,809.3839721679688,41.0629997253418)"><path stroke-linecap="butt" stroke-linejoin="miter" fill-opacity="0" stroke-miterlimit="4" stroke="rgb(255,51,102)" stroke-opacity="1" stroke-width="5.364" d=" M-4.622000217437744,-5.2820000648498535 C-4.622000217437744,-5.2820000648498535 -1.1009999513626099,-0.8799999952316284 -1.1009999513626099,-0.8799999952316284 C-1.1009999513626099,-0.8799999952316284 4.622000217437744,5.2820000648498535 4.622000217437744,5.2820000648498535"></path></g><g opacity="1" transform="matrix(1,0,0,1,808.5590209960938,56.0890007019043)"><path stroke-linecap="round" stroke-linejoin="miter" fill-opacity="0" stroke-miterlimit="4" stroke="rgb(43,44,93)" stroke-opacity="1" stroke-width="5.364" d=" M-4.236999988555908,-8.42300033569336 C-4.236999988555908,-7.211999893188477 1.940000057220459,-1.9170000553131104 4.0879998207092285,1.3860000371932983 C4.318999767303467,1.7419999837875366 4.2729997634887695,2.2009999752044678 4.010000228881836,2.5339999198913574 C4.010000228881836,2.5339999198913574 7.284999847412109,12.986000061035156 7.284999847412109,12.986000061035156"></path></g><g opacity="1" transform="matrix(1,0,0,1,801.2839965820312,57.29600143432617)"><path stroke-linecap="round" stroke-linejoin="miter" fill-opacity="0" stroke-miterlimit="4" stroke="rgb(43,44,93)" stroke-opacity="1" stroke-width="5.364" d=" M0.3700000047683716,-10.630000114440918 C0.3700000047683716,-10.630000114440918 1.7879999876022339,-1.090000033378601 3.872999906539917,2.5829999446868896 C4.083000183105469,2.953000068664551 4.039000034332275,3.4079999923706055 3.7750000953674316,3.740999937057495 C3.7750000953674316,3.740999937057495 -0.20000000298023224,5.067999839782715 -0.20000000298023224,5.067999839782715"></path></g><g opacity="1" transform="matrix(1,0,0,1,805.4920043945312,37.95899963378906)"><path fill="rgb(255,51,102)" fill-opacity="1" d=" M8.3149995803833,0 C8.3149995803833,4.5920000076293945 13.095000267028809,20.148000717163086 8.505999565124512,20.315000534057617 C5.1020002365112305,20.43899917602539 3.6559998989105225,16.96500015258789 0.3409999907016754,17.67099952697754 C-6.900000095367432,19.211999893188477 -3.4100000858306885,14.206000328063965 -9.281999588012695,15.234999656677246 C-10.795000076293945,15.5 -10.324999809265137,12.211999893188477 -9.6899995803833,10.5 C-7.9029998779296875,5.685999870300293 -0.765999972820282,-5.206999778747559 4.25,-5.940000057220459 C6.2179999351501465,-6.2270002365112305 8.3149995803833,-4.5920000076293945 8.3149995803833,0z"></path></g><g opacity="1" transform="matrix(1,0,0,1,807.3200073242188,33.849998474121094)"><path fill="rgb(211,211,251)" fill-opacity="1" d=" M4.109000205993652,2.371999979019165 C1.840000033378601,3.681999921798706 -2.940000057220459,2.8239998817443848 -2.8589999675750732,1.246999979019165 C-2.7200000286102295,-1.4730000495910645 -2.4700000286102295,-1.4730000495910645 -2.3589999675750732,-1.621999979019165 C0.16500000655651093,-2.3239998817443848 1.840000033378601,-3.681999921798706 4.109000205993652,-2.371999979019165 C6.377999782562256,-1.062000036239624 6.377999782562256,1.062000036239624 4.109000205993652,2.371999979019165z"></path></g><g opacity="1" transform="matrix(1,0,0,1,806.4769897460938,24.011999130249023)"><path fill="rgb(43,44,93)" fill-opacity="1" d=" M0,-1.877500057220459 C1.0361922979354858,-1.877500057220459 1.877500057220459,-1.0361922979354858 1.877500057220459,0 C1.877500057220459,1.0361922979354858 1.0361922979354858,1.877500057220459 0,1.877500057220459 C-1.0361922979354858,1.877500057220459 -1.877500057220459,1.0361922979354858 -1.877500057220459,0 C-1.877500057220459,-1.0361922979354858 -1.0361922979354858,-1.877500057220459 0,-1.877500057220459z"></path></g><g opacity="1" transform="matrix(1,0,0,1,806.4769897460938,24.011999130249023)"><path fill="rgb(43,44,93)" fill-opacity="1" d=" M-3.4000000953674316,-3.200000047683716 C-2.5721499919891357,-3.200000047683716 -1.9000000953674316,-2.5278501510620117 -1.9000000953674316,-1.7000000476837158 C-1.9000000953674316,-0.8721500635147095 -2.5721499919891357,-0.20000004768371582 -3.4000000953674316,-0.20000004768371582 C-4.227849960327148,-0.20000004768371582 -4.900000095367432,-0.8721500635147095 -4.900000095367432,-1.7000000476837158 C-4.900000095367432,-2.5278501510620117 -4.227849960327148,-3.200000047683716 -3.4000000953674316,-3.200000047683716z"></path></g><g opacity="1" transform="matrix(1,0,0,1,793.3880004882812,49.638999938964844)"><path fill="rgb(252,209,169)" fill-opacity="1" d=" M0,-3.0815000534057617 C1.700679898262024,-3.0815000534057617 3.0815000534057617,-1.700679898262024 3.0815000534057617,0 C3.0815000534057617,1.700679898262024 1.700679898262024,3.0815000534057617 0,3.0815000534057617 C-1.700679898262024,3.0815000534057617 -3.0815000534057617,1.700679898262024 -3.0815000534057617,0 C-3.0815000534057617,-1.700679898262024 -1.700679898262024,-3.0815000534057617 0,-3.0815000534057617z"></path></g><g opacity="1" transform="matrix(1,0,0,1,796.458984375,44.262001037597656)"><path stroke-linecap="butt" stroke-linejoin="miter" fill-opacity="0" stroke-miterlimit="4" stroke="rgb(255,51,102)" stroke-opacity="1" stroke-width="5.364" d=" M9.314000129699707,-7.607999801635742 C9.314000129699707,-7.607999801635742 1.9570000171661377,-2.931999921798706 1.9570000171661377,-2.931999921798706 C1.590999960899353,-2.7119998931884766 1.3899999856948853,-2.2950000762939453 1.4459999799728394,-1.871000051498413 C1.4459999799728394,-1.871000051498413 -3.2669999599456787,5.982999801635742 -3.2669999599456787,5.982999801635742"></path></g><g opacity="1" transform="matrix(1,0,0,1,810.0989990234375,29.643999099731445)"><path fill="rgb(252,209,169)" fill-opacity="1" d=" M0,-4.0229997634887695 C2.2202935218811035,-4.0229997634887695 4.0229997634887695,-2.2202935218811035 4.0229997634887695,0 C4.0229997634887695,2.2202935218811035 2.2202935218811035,4.0229997634887695 0,4.0229997634887695 C-2.2202935218811035,4.0229997634887695 -4.0229997634887695,2.2202935218811035 -4.0229997634887695,0 C-4.0229997634887695,-2.2202935218811035 -2.2202935218811035,-4.0229997634887695 0,-4.0229997634887695z"></path></g><g opacity="1" transform="matrix(1,0,0,1,809.4099731445312,28.500999450683594)"><path fill="rgb(43,44,93)" fill-opacity="1" d=" M0.7319999933242798,0.6050000190734863 C2.6080000400543213,-0.5860000252723694 4.828999996185303,0.15700000524520874 3.638000011444092,-1.718999981880188 C2.447000026702881,-3.5950000286102295 0.2849999964237213,-3.490999937057495 -1.590999960899353,-2.299999952316284 C-3.4670000076293945,-1.1089999675750732 -4.692999839782715,0.628000020980835 -3.502000093460083,2.503999948501587 C-2.311000108718872,4.380000114440918 -1.1440000534057617,1.7960000038146973 0.7319999933242798,0.6050000190734863z"></path></g></g><g transform="matrix(0.19169200956821442,0,0,0.19169200956821442,375.03216552734375,20.51441192626953)" opacity="1" style="display: block;"><g opacity="1" transform="matrix(1,0,0,1,45.97200012207031,31.86400032043457)"><path fill="rgb(0,202,114)" fill-opacity="1" d=" M-6.077000141143799,-22.716999053955078 C-3.183000087738037,-27.04800033569336 3.183000087738037,-27.04800033569336 6.077000141143799,-22.716999053955078 C6.077000141143799,-22.716999053955078 31.73200035095215,15.678000450134277 31.73200035095215,15.678000450134277 C34.97700119018555,20.53499984741211 31.496999740600586,27.04800033569336 25.655000686645508,27.04800033569336 C25.655000686645508,27.04800033569336 -25.65399932861328,27.04800033569336 -25.65399932861328,27.04800033569336 C-31.4950008392334,27.04800033569336 -34.97800064086914,20.53499984741211 -31.73200035095215,15.678000450134277 C-31.73200035095215,15.678000450134277 -6.077000141143799,-22.716999053955078 -6.077000141143799,-22.716999053955078z"></path></g><g opacity="1" transform="matrix(1,0,0,1,45.97200012207031,66.64900207519531)"><path fill="rgb(0,202,114)" fill-opacity="1" d=" M-6.077000141143799,-22.716999053955078 C-3.183000087738037,-27.04800033569336 3.183000087738037,-27.04800033569336 6.077000141143799,-22.716999053955078 C6.077000141143799,-22.716999053955078 31.73200035095215,15.678000450134277 31.73200035095215,15.678000450134277 C34.97700119018555,20.53499984741211 31.496999740600586,27.04800033569336 25.655000686645508,27.04800033569336 C25.655000686645508,27.04800033569336 -25.65399932861328,27.04800033569336 -25.65399932861328,27.04800033569336 C-31.4950008392334,27.04800033569336 -34.97800064086914,20.53499984741211 -31.73200035095215,15.678000450134277 C-31.73200035095215,15.678000450134277 -6.077000141143799,-22.716999053955078 -6.077000141143799,-22.716999053955078z"></path></g><g opacity="1" transform="matrix(1,0,0,1,45.770999908447266,140.4149932861328)"><path fill="rgb(15,16,72)" fill-opacity="1" d=" M-7.923999786376953,-36.64500045776367 C-7.923999786376953,-36.64500045776367 7.923999786376953,-36.64500045776367 7.923999786376953,-36.64500045776367 C7.923999786376953,-36.64500045776367 7.923999786376953,36.64500045776367 7.923999786376953,36.64500045776367 C7.923999786376953,36.64500045776367 -7.923999786376953,36.64500045776367 -7.923999786376953,36.64500045776367 C-7.923999786376953,36.64500045776367 -7.923999786376953,-36.64500045776367 -7.923999786376953,-36.64500045776367z"></path></g><g opacity="1" transform="matrix(1,0,0,1,56.95199966430664,149.0679931640625)"><path fill="rgb(15,16,72)" fill-opacity="1" d=" M7.209000110626221,-10.961999893188477 C7.209000110626221,-10.961999893188477 12.744000434875488,-3.118000030517578 12.744000434875488,-3.118000030517578 C12.744000434875488,-3.118000030517578 -7.210000038146973,10.961999893188477 -7.210000038146973,10.961999893188477 C-7.210000038146973,10.961999893188477 -12.744000434875488,3.118000030517578 -12.744000434875488,3.118000030517578 C-12.744000434875488,3.118000030517578 7.209000110626221,-10.961999893188477 7.209000110626221,-10.961999893188477z"></path></g><g opacity="1" transform="matrix(1,0,0,1,45.97200012207031,101.43399810791016)"><path fill="rgb(0,202,114)" fill-opacity="1" d=" M-6.077000141143799,-22.716999053955078 C-3.183000087738037,-27.04800033569336 3.183000087738037,-27.04800033569336 6.077000141143799,-22.716999053955078 C6.077000141143799,-22.716999053955078 31.73200035095215,15.678000450134277 31.73200035095215,15.678000450134277 C34.97700119018555,20.53499984741211 31.496999740600586,27.04800033569336 25.655000686645508,27.04800033569336 C25.655000686645508,27.04800033569336 -25.65399932861328,27.04800033569336 -25.65399932861328,27.04800033569336 C-31.4950008392334,27.04800033569336 -34.97800064086914,20.53499984741211 -31.73200035095215,15.678000450134277 C-31.73200035095215,15.678000450134277 -6.077000141143799,-22.716999053955078 -6.077000141143799,-22.716999053955078z"></path></g></g><g transform="matrix(0.32274502515792847,0,0,0.32274502515792847,50.828330993652344,-0.9243066310882568)" opacity="1" style="display: block;"><g opacity="1" transform="matrix(1,0,0,1,45.97200012207031,31.86400032043457)"><path fill="rgb(0,202,114)" fill-opacity="1" d=" M-6.077000141143799,-22.716999053955078 C-3.183000087738037,-27.04800033569336 3.183000087738037,-27.04800033569336 6.077000141143799,-22.716999053955078 C6.077000141143799,-22.716999053955078 31.73200035095215,15.678000450134277 31.73200035095215,15.678000450134277 C34.97700119018555,20.53499984741211 31.496999740600586,27.04800033569336 25.655000686645508,27.04800033569336 C25.655000686645508,27.04800033569336 -25.65399932861328,27.04800033569336 -25.65399932861328,27.04800033569336 C-31.4950008392334,27.04800033569336 -34.97800064086914,20.53499984741211 -31.73200035095215,15.678000450134277 C-31.73200035095215,15.678000450134277 -6.077000141143799,-22.716999053955078 -6.077000141143799,-22.716999053955078z"></path></g><g opacity="1" transform="matrix(1,0,0,1,45.97200012207031,66.64900207519531)"><path fill="rgb(0,202,114)" fill-opacity="1" d=" M-6.077000141143799,-22.716999053955078 C-3.183000087738037,-27.04800033569336 3.183000087738037,-27.04800033569336 6.077000141143799,-22.716999053955078 C6.077000141143799,-22.716999053955078 31.73200035095215,15.678000450134277 31.73200035095215,15.678000450134277 C34.97700119018555,20.53499984741211 31.496999740600586,27.04800033569336 25.655000686645508,27.04800033569336 C25.655000686645508,27.04800033569336 -25.65399932861328,27.04800033569336 -25.65399932861328,27.04800033569336 C-31.4950008392334,27.04800033569336 -34.97800064086914,20.53499984741211 -31.73200035095215,15.678000450134277 C-31.73200035095215,15.678000450134277 -6.077000141143799,-22.716999053955078 -6.077000141143799,-22.716999053955078z"></path></g><g opacity="1" transform="matrix(1,0,0,1,45.770999908447266,140.4149932861328)"><path fill="rgb(15,16,72)" fill-opacity="1" d=" M-7.923999786376953,-36.64500045776367 C-7.923999786376953,-36.64500045776367 7.923999786376953,-36.64500045776367 7.923999786376953,-36.64500045776367 C7.923999786376953,-36.64500045776367 7.923999786376953,36.64500045776367 7.923999786376953,36.64500045776367 C7.923999786376953,36.64500045776367 -7.923999786376953,36.64500045776367 -7.923999786376953,36.64500045776367 C-7.923999786376953,36.64500045776367 -7.923999786376953,-36.64500045776367 -7.923999786376953,-36.64500045776367z"></path></g><g opacity="1" transform="matrix(1,0,0,1,56.95199966430664,146.5679931640625)"><path fill="rgb(15,16,72)" fill-opacity="1" d=" M7.209000110626221,-10.961999893188477 C7.209000110626221,-10.961999893188477 12.744000434875488,-3.118000030517578 12.744000434875488,-3.118000030517578 C12.744000434875488,-3.118000030517578 -7.210000038146973,10.961999893188477 -7.210000038146973,10.961999893188477 C-7.210000038146973,10.961999893188477 -12.744000434875488,3.118000030517578 -12.744000434875488,3.118000030517578 C-12.744000434875488,3.118000030517578 7.209000110626221,-10.961999893188477 7.209000110626221,-10.961999893188477z"></path></g><g opacity="1" transform="matrix(-1,0,0,1,34.45199966430664,157.8179931640625)"><path fill="rgb(15,16,72)" fill-opacity="1" d=" M7.209000110626221,-10.961999893188477 C7.209000110626221,-10.961999893188477 12.744000434875488,-3.118000030517578 12.744000434875488,-3.118000030517578 C12.744000434875488,-3.118000030517578 -7.210000038146973,10.961999893188477 -7.210000038146973,10.961999893188477 C-7.210000038146973,10.961999893188477 -12.744000434875488,3.118000030517578 -12.744000434875488,3.118000030517578 C-12.744000434875488,3.118000030517578 7.209000110626221,-10.961999893188477 7.209000110626221,-10.961999893188477z"></path></g><g opacity="1" transform="matrix(1,0,0,1,45.97200012207031,101.43399810791016)"><path fill="rgb(0,202,114)" fill-opacity="1" d=" M-6.077000141143799,-22.716999053955078 C-3.183000087738037,-27.04800033569336 3.183000087738037,-27.04800033569336 6.077000141143799,-22.716999053955078 C6.077000141143799,-22.716999053955078 31.73200035095215,15.678000450134277 31.73200035095215,15.678000450134277 C34.97700119018555,20.53499984741211 31.496999740600586,27.04800033569336 25.655000686645508,27.04800033569336 C25.655000686645508,27.04800033569336 -25.65399932861328,27.04800033569336 -25.65399932861328,27.04800033569336 C-31.4950008392334,27.04800033569336 -34.97800064086914,20.53499984741211 -31.73200035095215,15.678000450134277 C-31.73200035095215,15.678000450134277 -6.077000141143799,-22.716999053955078 -6.077000141143799,-22.716999053955078z"></path></g></g><g transform="matrix(0.2626499831676483,0,0,0.2626499831676483,-367.001953125,-47.72238540649414)" opacity="1" style="display: block;"><g opacity="1" transform="matrix(1,0,0,1,2992,379.68798828125)"><path fill="rgb(208,231,244)" fill-opacity="1" d=" M1028.1400146484375,-98.21099853515625 C1028.1400146484375,-98.21099853515625 1028.1400146484375,98.21099853515625 1028.1400146484375,98.21099853515625 C1028.1400146484375,98.21099853515625 -1028.1400146484375,98.21099853515625 -1028.1400146484375,98.21099853515625 C-708.9600219726562,-34.37300109863281 475.7099914550781,-87.98100280761719 1028.1400146484375,-98.21099853515625z"></path></g></g><g transform="matrix(0.2626499831676483,0,0,0.2626499831676483,-367.001953125,-47.72238540649414)" opacity="1" style="display: block;"><g opacity="1" transform="matrix(1,0,0,1,2992,379.68798828125)"><path fill="rgb(208,231,244)" fill-opacity="1" d=" M1028.1400146484375,-98.21099853515625 C1028.1400146484375,-98.21099853515625 1028.1400146484375,98.21099853515625 1028.1400146484375,98.21099853515625 C1028.1400146484375,98.21099853515625 -1028.1400146484375,98.21099853515625 -1028.1400146484375,98.21099853515625 C-708.9600219726562,-34.37300109863281 475.7099914550781,-87.98100280761719 1028.1400146484375,-98.21099853515625z"></path></g></g><g transform="matrix(0.22950001060962677,0,0,0.22950001060962677,491.2347717285156,47.34574890136719)" opacity="1" style="display: block;"><g opacity="1" transform="matrix(1,0,0,1,21.767000198364258,84.01799774169922)"><path stroke-linecap="round" stroke-linejoin="miter" fill-opacity="0" stroke-miterlimit="4" stroke="rgb(0,202,114)" stroke-opacity="1" stroke-width="6" d=" M-17.80900001525879,15.651000022888184 C-5.936999797821045,14.607999801635742 17.80900001525879,6.88700008392334 17.80900001525879,-15.651000022888184"></path></g><g opacity="1" transform="matrix(1,0,0,1,57.3849983215332,84.01799774169922)"><path stroke-linecap="round" stroke-linejoin="miter" fill-opacity="0" stroke-miterlimit="4" stroke="rgb(0,202,114)" stroke-opacity="1" stroke-width="6" d=" M17.80900001525879,15.651000022888184 C5.936999797821045,14.607999801635742 -17.80900001525879,6.88700008392334 -17.80900001525879,-15.651000022888184"></path></g><g opacity="1" transform="matrix(1,0,0,1,21.767000198364258,51.48500061035156)"><path stroke-linecap="round" stroke-linejoin="miter" fill-opacity="0" stroke-miterlimit="4" stroke="rgb(0,202,114)" stroke-opacity="1" stroke-width="6" d=" M-17.80900001525879,15.651000022888184 C-5.936999797821045,14.607999801635742 17.80900001525879,6.88700008392334 17.80900001525879,-15.651000022888184"></path></g><g opacity="1" transform="matrix(1,0,0,1,57.3849983215332,51.48500061035156)"><path stroke-linecap="round" stroke-linejoin="miter" fill-opacity="0" stroke-miterlimit="4" stroke="rgb(0,202,114)" stroke-opacity="1" stroke-width="6" d=" M17.80900001525879,15.651000022888184 C5.936999797821045,14.607999801635742 -17.80900001525879,6.88700008392334 -17.80900001525879,-15.651000022888184"></path></g><g opacity="1" transform="matrix(1,0,0,1,21.767000198364258,18.951000213623047)"><path stroke-linecap="round" stroke-linejoin="miter" fill-opacity="0" stroke-miterlimit="4" stroke="rgb(0,202,114)" stroke-opacity="1" stroke-width="6" d=" M-17.80900001525879,15.651000022888184 C-5.936999797821045,14.607999801635742 17.80900001525879,6.88700008392334 17.80900001525879,-15.651000022888184"></path></g><g opacity="1" transform="matrix(1,0,0,1,57.3849983215332,18.951000213623047)"><path stroke-linecap="round" stroke-linejoin="miter" fill-opacity="0" stroke-miterlimit="4" stroke="rgb(0,202,114)" stroke-opacity="1" stroke-width="6" d=" M17.80900001525879,15.651000022888184 C5.936999797821045,14.607999801635742 -17.80900001525879,6.88700008392334 -17.80900001525879,-15.651000022888184"></path></g><g opacity="1" transform="matrix(1,0,0,1,0,0)"><path stroke-linecap="butt" stroke-linejoin="miter" fill-opacity="0" stroke-miterlimit="4" stroke="rgb(0,202,114)" stroke-opacity="1" stroke-width="6" d=" M40.07600021362305,162.822998046875 C40.07600021362305,162.822998046875 40.07600021362305,6.260000228881836 40.07600021362305,6.260000228881836"></path></g></g><g transform="matrix(0.08247549831867218,0,0,0.08247549831867218,233.54222106933594,5.353246688842773)" opacity="1" style="display: block;"><g opacity="1" transform="matrix(1,0,0,1,21.767000198364258,84.01799774169922)"><path stroke-linecap="round" stroke-linejoin="miter" fill-opacity="0" stroke-miterlimit="4" stroke="rgb(0,202,114)" stroke-opacity="1" stroke-width="6" d=" M-17.80900001525879,15.651000022888184 C-5.936999797821045,14.607999801635742 17.80900001525879,6.88700008392334 17.80900001525879,-15.651000022888184"></path></g><g opacity="1" transform="matrix(1,0,0,1,57.3849983215332,84.01799774169922)"><path stroke-linecap="round" stroke-linejoin="miter" fill-opacity="0" stroke-miterlimit="4" stroke="rgb(0,202,114)" stroke-opacity="1" stroke-width="6" d=" M17.80900001525879,15.651000022888184 C5.936999797821045,14.607999801635742 -17.80900001525879,6.88700008392334 -17.80900001525879,-15.651000022888184"></path></g><g opacity="1" transform="matrix(1,0,0,1,21.767000198364258,51.48500061035156)"><path stroke-linecap="round" stroke-linejoin="miter" fill-opacity="0" stroke-miterlimit="4" stroke="rgb(0,202,114)" stroke-opacity="1" stroke-width="6" d=" M-17.80900001525879,15.651000022888184 C-5.936999797821045,14.607999801635742 17.80900001525879,6.88700008392334 17.80900001525879,-15.651000022888184"></path></g><g opacity="1" transform="matrix(1,0,0,1,57.3849983215332,51.48500061035156)"><path stroke-linecap="round" stroke-linejoin="miter" fill-opacity="0" stroke-miterlimit="4" stroke="rgb(0,202,114)" stroke-opacity="1" stroke-width="6" d=" M17.80900001525879,15.651000022888184 C5.936999797821045,14.607999801635742 -17.80900001525879,6.88700008392334 -17.80900001525879,-15.651000022888184"></path></g><g opacity="1" transform="matrix(1,0,0,1,21.767000198364258,18.951000213623047)"><path stroke-linecap="round" stroke-linejoin="miter" fill-opacity="0" stroke-miterlimit="4" stroke="rgb(0,202,114)" stroke-opacity="1" stroke-width="6" d=" M-17.80900001525879,15.651000022888184 C-5.936999797821045,14.607999801635742 17.80900001525879,6.88700008392334 17.80900001525879,-15.651000022888184"></path></g><g opacity="1" transform="matrix(1,0,0,1,57.3849983215332,18.951000213623047)"><path stroke-linecap="round" stroke-linejoin="miter" fill-opacity="0" stroke-miterlimit="4" stroke="rgb(0,202,114)" stroke-opacity="1" stroke-width="6" d=" M17.80900001525879,15.651000022888184 C5.936999797821045,14.607999801635742 -17.80900001525879,6.88700008392334 -17.80900001525879,-15.651000022888184"></path></g><g opacity="1" transform="matrix(1,0,0,1,0,0)"><path stroke-linecap="butt" stroke-linejoin="miter" fill-opacity="0" stroke-miterlimit="4" stroke="rgb(0,202,114)" stroke-opacity="1" stroke-width="6" d=" M40.07600021362305,162.822998046875 C40.07600021362305,162.822998046875 40.07600021362305,6.260000228881836 40.07600021362305,6.260000228881836"></path></g></g><g transform="matrix(0.10117550194263458,0,0,0.10117550194263458,432.5535583496094,6.379197597503662)" opacity="1" style="display: block;"><g opacity="1" transform="matrix(1,0,0,1,21.767000198364258,84.01799774169922)"><path stroke-linecap="round" stroke-linejoin="miter" fill-opacity="0" stroke-miterlimit="4" stroke="rgb(0,0,0)" stroke-opacity="1" stroke-width="6" d=" M-17.80900001525879,15.651000022888184 C-5.936999797821045,14.607999801635742 17.80900001525879,6.88700008392334 17.80900001525879,-15.651000022888184"></path></g><g opacity="1" transform="matrix(1,0,0,1,57.3849983215332,84.01799774169922)"><path stroke-linecap="round" stroke-linejoin="miter" fill-opacity="0" stroke-miterlimit="4" stroke="rgb(0,0,0)" stroke-opacity="1" stroke-width="6" d=" M17.80900001525879,15.651000022888184 C5.936999797821045,14.607999801635742 -17.80900001525879,6.88700008392334 -17.80900001525879,-15.651000022888184"></path></g><g opacity="1" transform="matrix(1,0,0,1,21.767000198364258,51.48500061035156)"><path stroke-linecap="round" stroke-linejoin="miter" fill-opacity="0" stroke-miterlimit="4" stroke="rgb(0,0,0)" stroke-opacity="1" stroke-width="6" d=" M-17.80900001525879,15.651000022888184 C-5.936999797821045,14.607999801635742 17.80900001525879,6.88700008392334 17.80900001525879,-15.651000022888184"></path></g><g opacity="1" transform="matrix(1,0,0,1,57.3849983215332,51.48500061035156)"><path stroke-linecap="round" stroke-linejoin="miter" fill-opacity="0" stroke-miterlimit="4" stroke="rgb(0,0,0)" stroke-opacity="1" stroke-width="6" d=" M17.80900001525879,15.651000022888184 C5.936999797821045,14.607999801635742 -17.80900001525879,6.88700008392334 -17.80900001525879,-15.651000022888184"></path></g><g opacity="1" transform="matrix(1,0,0,1,21.767000198364258,18.951000213623047)"><path stroke-linecap="round" stroke-linejoin="miter" fill-opacity="0" stroke-miterlimit="4" stroke="rgb(0,0,0)" stroke-opacity="1" stroke-width="6" d=" M-17.80900001525879,15.651000022888184 C-5.936999797821045,14.607999801635742 17.80900001525879,6.88700008392334 17.80900001525879,-15.651000022888184"></path></g><g opacity="1" transform="matrix(1,0,0,1,57.3849983215332,18.951000213623047)"><path stroke-linecap="round" stroke-linejoin="miter" fill-opacity="0" stroke-miterlimit="4" stroke="rgb(0,0,0)" stroke-opacity="1" stroke-width="6" d=" M17.80900001525879,15.651000022888184 C5.936999797821045,14.607999801635742 -17.80900001525879,6.88700008392334 -17.80900001525879,-15.651000022888184"></path></g><g opacity="1" transform="matrix(1,0,0,1,0,0)"><path stroke-linecap="butt" stroke-linejoin="miter" fill-opacity="0" stroke-miterlimit="4" stroke="rgb(0,0,0)" stroke-opacity="1" stroke-width="6" d=" M40.07600021362305,162.822998046875 C40.07600021362305,162.822998046875 40.07600021362305,6.260000228881836 40.07600021362305,6.260000228881836"></path></g></g><g transform="matrix(0.22950001060962677,0,0,0.22950001060962677,11.409734725952148,55.42074966430664)" opacity="1" style="display: block;"><g opacity="1" transform="matrix(1,0,0,1,21.767000198364258,51.48500061035156)"><path stroke-linecap="round" stroke-linejoin="miter" fill-opacity="0" stroke-miterlimit="4" stroke="rgb(0,202,114)" stroke-opacity="1" stroke-width="6" d=" M-17.80900001525879,15.651000022888184 C-5.936999797821045,14.607999801635742 17.80900001525879,6.88700008392334 17.80900001525879,-15.651000022888184"></path></g><g opacity="1" transform="matrix(1,0,0,1,57.3849983215332,51.48500061035156)"><path stroke-linecap="round" stroke-linejoin="miter" fill-opacity="0" stroke-miterlimit="4" stroke="rgb(0,202,114)" stroke-opacity="1" stroke-width="6" d=" M17.80900001525879,15.651000022888184 C5.936999797821045,14.607999801635742 -17.80900001525879,6.88700008392334 -17.80900001525879,-15.651000022888184"></path></g><g opacity="1" transform="matrix(1,0,0,1,21.767000198364258,18.951000213623047)"><path stroke-linecap="round" stroke-linejoin="miter" fill-opacity="0" stroke-miterlimit="4" stroke="rgb(0,202,114)" stroke-opacity="1" stroke-width="6" d=" M-17.80900001525879,15.651000022888184 C-5.936999797821045,14.607999801635742 17.80900001525879,6.88700008392334 17.80900001525879,-15.651000022888184"></path></g><g opacity="1" transform="matrix(1,0,0,1,57.3849983215332,18.951000213623047)"><path stroke-linecap="round" stroke-linejoin="miter" fill-opacity="0" stroke-miterlimit="4" stroke="rgb(0,202,114)" stroke-opacity="1" stroke-width="6" d=" M17.80900001525879,15.651000022888184 C5.936999797821045,14.607999801635742 -17.80900001525879,6.88700008392334 -17.80900001525879,-15.651000022888184"></path></g><g opacity="1" transform="matrix(1,0,0,1,0,0)"><path stroke-linecap="butt" stroke-linejoin="miter" fill-opacity="0" stroke-miterlimit="4" stroke="rgb(0,202,114)" stroke-opacity="1" stroke-width="6" d=" M40.07600021362305,162.822998046875 C40.07600021362305,162.822998046875 40.07600021362305,6.260000228881836 40.07600021362305,6.260000228881836"></path></g></g><g transform="matrix(0.2454800009727478,0,0,0.2454800009727478,528.9579467773438,17.852279663085938)" opacity="1" style="display: block;"><g opacity="1" transform="matrix(1,0,0,1,45.97200012207031,31.86400032043457)"><path fill="rgb(0,202,114)" fill-opacity="1" d=" M-6.077000141143799,-22.716999053955078 C-3.183000087738037,-27.04800033569336 3.183000087738037,-27.04800033569336 6.077000141143799,-22.716999053955078 C6.077000141143799,-22.716999053955078 31.73200035095215,15.678000450134277 31.73200035095215,15.678000450134277 C34.97700119018555,20.53499984741211 31.496999740600586,27.04800033569336 25.655000686645508,27.04800033569336 C25.655000686645508,27.04800033569336 -25.65399932861328,27.04800033569336 -25.65399932861328,27.04800033569336 C-31.4950008392334,27.04800033569336 -34.97800064086914,20.53499984741211 -31.73200035095215,15.678000450134277 C-31.73200035095215,15.678000450134277 -6.077000141143799,-22.716999053955078 -6.077000141143799,-22.716999053955078z"></path></g><g opacity="1" transform="matrix(1,0,0,1,45.97200012207031,66.64900207519531)"><path fill="rgb(0,202,114)" fill-opacity="1" d=" M-6.077000141143799,-22.716999053955078 C-3.183000087738037,-27.04800033569336 3.183000087738037,-27.04800033569336 6.077000141143799,-22.716999053955078 C6.077000141143799,-22.716999053955078 31.73200035095215,15.678000450134277 31.73200035095215,15.678000450134277 C34.97700119018555,20.53499984741211 31.496999740600586,27.04800033569336 25.655000686645508,27.04800033569336 C25.655000686645508,27.04800033569336 -25.65399932861328,27.04800033569336 -25.65399932861328,27.04800033569336 C-31.4950008392334,27.04800033569336 -34.97800064086914,20.53499984741211 -31.73200035095215,15.678000450134277 C-31.73200035095215,15.678000450134277 -6.077000141143799,-22.716999053955078 -6.077000141143799,-22.716999053955078z"></path></g><g opacity="1" transform="matrix(1,0,0,1,45.770999908447266,140.4149932861328)"><path fill="rgb(15,16,72)" fill-opacity="1" d=" M-7.923999786376953,-36.64500045776367 C-7.923999786376953,-36.64500045776367 7.923999786376953,-36.64500045776367 7.923999786376953,-36.64500045776367 C7.923999786376953,-36.64500045776367 7.923999786376953,36.64500045776367 7.923999786376953,36.64500045776367 C7.923999786376953,36.64500045776367 -7.923999786376953,36.64500045776367 -7.923999786376953,36.64500045776367 C-7.923999786376953,36.64500045776367 -7.923999786376953,-36.64500045776367 -7.923999786376953,-36.64500045776367z"></path></g><g opacity="1" transform="matrix(1,0,0,1,56.95199966430664,149.0679931640625)"><path fill="rgb(15,16,72)" fill-opacity="1" d=" M7.209000110626221,-10.961999893188477 C7.209000110626221,-10.961999893188477 12.744000434875488,-3.118000030517578 12.744000434875488,-3.118000030517578 C12.744000434875488,-3.118000030517578 -7.210000038146973,10.961999893188477 -7.210000038146973,10.961999893188477 C-7.210000038146973,10.961999893188477 -12.744000434875488,3.118000030517578 -12.744000434875488,3.118000030517578 C-12.744000434875488,3.118000030517578 7.209000110626221,-10.961999893188477 7.209000110626221,-10.961999893188477z"></path></g><g opacity="1" transform="matrix(1,0,0,1,45.97200012207031,101.43399810791016)"><path fill="rgb(0,202,114)" fill-opacity="1" d=" M-6.077000141143799,-22.716999053955078 C-3.183000087738037,-27.04800033569336 3.183000087738037,-27.04800033569336 6.077000141143799,-22.716999053955078 C6.077000141143799,-22.716999053955078 31.73200035095215,15.678000450134277 31.73200035095215,15.678000450134277 C34.97700119018555,20.53499984741211 31.496999740600586,27.04800033569336 25.655000686645508,27.04800033569336 C25.655000686645508,27.04800033569336 -25.65399932861328,27.04800033569336 -25.65399932861328,27.04800033569336 C-31.4950008392334,27.04800033569336 -34.97800064086914,20.53499984741211 -31.73200035095215,15.678000450134277 C-31.73200035095215,15.678000450134277 -6.077000141143799,-22.716999053955078 -6.077000141143799,-22.716999053955078z"></path></g></g><g transform="matrix(0.42797499895095825,0,0,0.42797499895095825,232.41314697265625,36.885223388671875)" opacity="1" style="display: block;"><g opacity="1" transform="matrix(1,0,0,1,45.770999908447266,140.4149932861328)"><path fill="rgb(15,16,72)" fill-opacity="1" d=" M-7.923999786376953,-36.64500045776367 C-7.923999786376953,-36.64500045776367 7.923999786376953,-36.64500045776367 7.923999786376953,-36.64500045776367 C7.923999786376953,-36.64500045776367 7.923999786376953,36.64500045776367 7.923999786376953,36.64500045776367 C7.923999786376953,36.64500045776367 -7.923999786376953,36.64500045776367 -7.923999786376953,36.64500045776367 C-7.923999786376953,36.64500045776367 -7.923999786376953,-36.64500045776367 -7.923999786376953,-36.64500045776367z"></path></g><g opacity="1" transform="matrix(-1,0,0,1,34.45199966430664,157.8179931640625)"><path fill="rgb(15,16,72)" fill-opacity="1" d=" M7.209000110626221,-10.961999893188477 C7.209000110626221,-10.961999893188477 12.744000434875488,-3.118000030517578 12.744000434875488,-3.118000030517578 C12.744000434875488,-3.118000030517578 -7.210000038146973,10.961999893188477 -7.210000038146973,10.961999893188477 C-7.210000038146973,10.961999893188477 -12.744000434875488,3.118000030517578 -12.744000434875488,3.118000030517578 C-12.744000434875488,3.118000030517578 7.209000110626221,-10.961999893188477 7.209000110626221,-10.961999893188477z"></path></g><g opacity="1" transform="matrix(1,0,0,1,45.97200012207031,31.86400032043457)"><path fill="rgb(255,255,255)" fill-opacity="1" d=" M-6.077000141143799,-22.716999053955078 C-3.183000087738037,-27.04800033569336 3.183000087738037,-27.04800033569336 6.077000141143799,-22.716999053955078 C6.077000141143799,-22.716999053955078 31.73200035095215,15.678000450134277 31.73200035095215,15.678000450134277 C34.97700119018555,20.53499984741211 31.496999740600586,27.04800033569336 25.655000686645508,27.04800033569336 C25.655000686645508,27.04800033569336 -25.65399932861328,27.04800033569336 -25.65399932861328,27.04800033569336 C-31.4950008392334,27.04800033569336 -34.97800064086914,20.53499984741211 -31.73200035095215,15.678000450134277 C-31.73200035095215,15.678000450134277 -6.077000141143799,-22.716999053955078 -6.077000141143799,-22.716999053955078z"></path></g><g opacity="1" transform="matrix(1,0,0,1,45.97200012207031,66.64900207519531)"><path fill="rgb(255,255,255)" fill-opacity="1" d=" M-6.077000141143799,-22.716999053955078 C-3.183000087738037,-27.04800033569336 3.183000087738037,-27.04800033569336 6.077000141143799,-22.716999053955078 C6.077000141143799,-22.716999053955078 31.73200035095215,15.678000450134277 31.73200035095215,15.678000450134277 C34.97700119018555,20.53499984741211 31.496999740600586,27.04800033569336 25.655000686645508,27.04800033569336 C25.655000686645508,27.04800033569336 -25.65399932861328,27.04800033569336 -25.65399932861328,27.04800033569336 C-31.4950008392334,27.04800033569336 -34.97800064086914,20.53499984741211 -31.73200035095215,15.678000450134277 C-31.73200035095215,15.678000450134277 -6.077000141143799,-22.716999053955078 -6.077000141143799,-22.716999053955078z"></path></g><g opacity="1" transform="matrix(1,0,0,1,45.97200012207031,101.43399810791016)"><path fill="rgb(255,255,255)" fill-opacity="1" d=" M-6.077000141143799,-22.716999053955078 C-3.183000087738037,-27.04800033569336 3.183000087738037,-27.04800033569336 6.077000141143799,-22.716999053955078 C6.077000141143799,-22.716999053955078 31.73200035095215,15.678000450134277 31.73200035095215,15.678000450134277 C34.97700119018555,20.53499984741211 31.496999740600586,27.04800033569336 25.655000686645508,27.04800033569336 C25.655000686645508,27.04800033569336 -25.65399932861328,27.04800033569336 -25.65399932861328,27.04800033569336 C-31.4950008392334,27.04800033569336 -34.97800064086914,20.53499984741211 -31.73200035095215,15.678000450134277 C-31.73200035095215,15.678000450134277 -6.077000141143799,-22.716999053955078 -6.077000141143799,-22.716999053955078z"></path></g></g><g transform="matrix(0.1909865140914917,0,0,0.1909865140914917,316.41461181640625,-1.9477994441986084)" opacity="1" style="display: block;"><g opacity="1" transform="matrix(1,0,0,1,45.770999908447266,140.4149932861328)"><path fill="rgb(15,16,72)" fill-opacity="1" d=" M-7.923999786376953,-36.64500045776367 C-7.923999786376953,-36.64500045776367 7.923999786376953,-36.64500045776367 7.923999786376953,-36.64500045776367 C7.923999786376953,-36.64500045776367 7.923999786376953,36.64500045776367 7.923999786376953,36.64500045776367 C7.923999786376953,36.64500045776367 -7.923999786376953,36.64500045776367 -7.923999786376953,36.64500045776367 C-7.923999786376953,36.64500045776367 -7.923999786376953,-36.64500045776367 -7.923999786376953,-36.64500045776367z"></path></g><g opacity="1" transform="matrix(-1,0,0,1,34.45199966430664,155.3179931640625)"><path fill="rgb(15,16,72)" fill-opacity="1" d=" M7.209000110626221,-10.961999893188477 C7.209000110626221,-10.961999893188477 12.744000434875488,-3.118000030517578 12.744000434875488,-3.118000030517578 C12.744000434875488,-3.118000030517578 -7.210000038146973,10.961999893188477 -7.210000038146973,10.961999893188477 C-7.210000038146973,10.961999893188477 -12.744000434875488,3.118000030517578 -12.744000434875488,3.118000030517578 C-12.744000434875488,3.118000030517578 7.209000110626221,-10.961999893188477 7.209000110626221,-10.961999893188477z"></path></g><g opacity="1" transform="matrix(1,0,0,1,45.97200012207031,66.64900207519531)"><path fill="rgb(255,255,255)" fill-opacity="1" d=" M-6.077000141143799,-22.716999053955078 C-3.183000087738037,-27.04800033569336 3.183000087738037,-27.04800033569336 6.077000141143799,-22.716999053955078 C6.077000141143799,-22.716999053955078 31.73200035095215,15.678000450134277 31.73200035095215,15.678000450134277 C34.97700119018555,20.53499984741211 31.496999740600586,27.04800033569336 25.655000686645508,27.04800033569336 C25.655000686645508,27.04800033569336 -25.65399932861328,27.04800033569336 -25.65399932861328,27.04800033569336 C-31.4950008392334,27.04800033569336 -34.97800064086914,20.53499984741211 -31.73200035095215,15.678000450134277 C-31.73200035095215,15.678000450134277 -6.077000141143799,-22.716999053955078 -6.077000141143799,-22.716999053955078z"></path></g><g opacity="1" transform="matrix(1,0,0,1,45.97200012207031,101.43399810791016)"><path fill="rgb(255,255,255)" fill-opacity="1" d=" M-6.077000141143799,-22.716999053955078 C-3.183000087738037,-27.04800033569336 3.183000087738037,-27.04800033569336 6.077000141143799,-22.716999053955078 C6.077000141143799,-22.716999053955078 31.73200035095215,15.678000450134277 31.73200035095215,15.678000450134277 C34.97700119018555,20.53499984741211 31.496999740600586,27.04800033569336 25.655000686645508,27.04800033569336 C25.655000686645508,27.04800033569336 -25.65399932861328,27.04800033569336 -25.65399932861328,27.04800033569336 C-31.4950008392334,27.04800033569336 -34.97800064086914,20.53499984741211 -31.73200035095215,15.678000450134277 C-31.73200035095215,15.678000450134277 -6.077000141143799,-22.716999053955078 -6.077000141143799,-22.716999053955078z"></path></g></g><g transform="matrix(0.18515551090240479,0,0,0.18515551090240479,300.10784912109375,1.5461583137512207)" opacity="1" style="display: block;"><g opacity="1" transform="matrix(1,0,0,1,45.97200012207031,31.86400032043457)"><path fill="rgb(0,202,114)" fill-opacity="1" d=" M-6.077000141143799,-22.716999053955078 C-3.183000087738037,-27.04800033569336 3.183000087738037,-27.04800033569336 6.077000141143799,-22.716999053955078 C6.077000141143799,-22.716999053955078 31.73200035095215,15.678000450134277 31.73200035095215,15.678000450134277 C34.97700119018555,20.53499984741211 31.496999740600586,27.04800033569336 25.655000686645508,27.04800033569336 C25.655000686645508,27.04800033569336 -25.65399932861328,27.04800033569336 -25.65399932861328,27.04800033569336 C-31.4950008392334,27.04800033569336 -34.97800064086914,20.53499984741211 -31.73200035095215,15.678000450134277 C-31.73200035095215,15.678000450134277 -6.077000141143799,-22.716999053955078 -6.077000141143799,-22.716999053955078z"></path></g><g opacity="1" transform="matrix(1,0,0,1,45.97200012207031,66.64900207519531)"><path fill="rgb(0,202,114)" fill-opacity="1" d=" M-6.077000141143799,-22.716999053955078 C-3.183000087738037,-27.04800033569336 3.183000087738037,-27.04800033569336 6.077000141143799,-22.716999053955078 C6.077000141143799,-22.716999053955078 31.73200035095215,15.678000450134277 31.73200035095215,15.678000450134277 C34.97700119018555,20.53499984741211 31.496999740600586,27.04800033569336 25.655000686645508,27.04800033569336 C25.655000686645508,27.04800033569336 -25.65399932861328,27.04800033569336 -25.65399932861328,27.04800033569336 C-31.4950008392334,27.04800033569336 -34.97800064086914,20.53499984741211 -31.73200035095215,15.678000450134277 C-31.73200035095215,15.678000450134277 -6.077000141143799,-22.716999053955078 -6.077000141143799,-22.716999053955078z"></path></g><g opacity="1" transform="matrix(1,0,0,1,45.770999908447266,140.4149932861328)"><path fill="rgb(15,16,72)" fill-opacity="1" d=" M-7.923999786376953,-36.64500045776367 C-7.923999786376953,-36.64500045776367 7.923999786376953,-36.64500045776367 7.923999786376953,-36.64500045776367 C7.923999786376953,-36.64500045776367 7.923999786376953,36.64500045776367 7.923999786376953,36.64500045776367 C7.923999786376953,36.64500045776367 -7.923999786376953,36.64500045776367 -7.923999786376953,36.64500045776367 C-7.923999786376953,36.64500045776367 -7.923999786376953,-36.64500045776367 -7.923999786376953,-36.64500045776367z"></path></g><g opacity="1" transform="matrix(1,0,0,1,56.95199966430664,146.5679931640625)"><path fill="rgb(15,16,72)" fill-opacity="1" d=" M7.209000110626221,-10.961999893188477 C7.209000110626221,-10.961999893188477 12.744000434875488,-3.118000030517578 12.744000434875488,-3.118000030517578 C12.744000434875488,-3.118000030517578 -7.210000038146973,10.961999893188477 -7.210000038146973,10.961999893188477 C-7.210000038146973,10.961999893188477 -12.744000434875488,3.118000030517578 -12.744000434875488,3.118000030517578 C-12.744000434875488,3.118000030517578 7.209000110626221,-10.961999893188477 7.209000110626221,-10.961999893188477z"></path></g><g opacity="1" transform="matrix(-1,0,0,1,34.45199966430664,157.8179931640625)"><path fill="rgb(15,16,72)" fill-opacity="1" d=" M7.209000110626221,-10.961999893188477 C7.209000110626221,-10.961999893188477 12.744000434875488,-3.118000030517578 12.744000434875488,-3.118000030517578 C12.744000434875488,-3.118000030517578 -7.210000038146973,10.961999893188477 -7.210000038146973,10.961999893188477 C-7.210000038146973,10.961999893188477 -12.744000434875488,3.118000030517578 -12.744000434875488,3.118000030517578 C-12.744000434875488,3.118000030517578 7.209000110626221,-10.961999893188477 7.209000110626221,-10.961999893188477z"></path></g><g opacity="1" transform="matrix(1,0,0,1,45.97200012207031,101.43399810791016)"><path fill="rgb(0,202,114)" fill-opacity="1" d=" M-6.077000141143799,-22.716999053955078 C-3.183000087738037,-27.04800033569336 3.183000087738037,-27.04800033569336 6.077000141143799,-22.716999053955078 C6.077000141143799,-22.716999053955078 31.73200035095215,15.678000450134277 31.73200035095215,15.678000450134277 C34.97700119018555,20.53499984741211 31.496999740600586,27.04800033569336 25.655000686645508,27.04800033569336 C25.655000686645508,27.04800033569336 -25.65399932861328,27.04800033569336 -25.65399932861328,27.04800033569336 C-31.4950008392334,27.04800033569336 -34.97800064086914,20.53499984741211 -31.73200035095215,15.678000450134277 C-31.73200035095215,15.678000450134277 -6.077000141143799,-22.716999053955078 -6.077000141143799,-22.716999053955078z"></path></g></g><g clip-path="url(#__lottie_element_567)" transform="matrix(0.8500000238418579,0,0,0.8500000238418579,1.3499921560287476,0.174998939037323)" opacity="1" style="display: block;"><g transform="matrix(1,0,0,1,53.28204345703125,395.18804931640625)" opacity="1" style="display: none;"><g opacity="1" transform="matrix(1,0,0,1,270.4200134277344,-422.0790100097656)"><path fill="rgb(255,255,255)" fill-opacity="1" d=" M0,-5.921000003814697 C3.2677998542785645,-5.921000003814697 5.921000003814697,-3.2677998542785645 5.921000003814697,0 C5.921000003814697,3.2677998542785645 3.2677998542785645,5.921000003814697 0,5.921000003814697 C-3.2677998542785645,5.921000003814697 -5.921000003814697,3.2677998542785645 -5.921000003814697,0 C-5.921000003814697,-3.2677998542785645 -3.2677998542785645,-5.921000003814697 0,-5.921000003814697z"></path></g></g><g style="display: none;" transform="matrix(1,0,0,1,-174.291015625,454.54931640625)" opacity="1"><g opacity="1" transform="matrix(1,0,0,1,270.4200134277344,-422.0790100097656)"><path fill="rgb(255,255,255)" fill-opacity="1" d=" M0,-5.921000003814697 C3.2677998542785645,-5.921000003814697 5.921000003814697,-3.2677998542785645 5.921000003814697,0 C5.921000003814697,3.2677998542785645 3.2677998542785645,5.921000003814697 0,5.921000003814697 C-3.2677998542785645,5.921000003814697 -5.921000003814697,3.2677998542785645 -5.921000003814697,0 C-5.921000003814697,-3.2677998542785645 -3.2677998542785645,-5.921000003814697 0,-5.921000003814697z"></path></g></g><g transform="matrix(0.800000011920929,0,0,0.800000011920929,392.6402587890625,325.3946533203125)" opacity="1" style="display: none;"><g opacity="1" transform="matrix(1,0,0,1,270.4200134277344,-422.0790100097656)"><path fill="rgb(255,255,255)" fill-opacity="1" d=" M0,-5.921000003814697 C3.2677998542785645,-5.921000003814697 5.921000003814697,-3.2677998542785645 5.921000003814697,0 C5.921000003814697,3.2677998542785645 3.2677998542785645,5.921000003814697 0,5.921000003814697 C-3.2677998542785645,5.921000003814697 -5.921000003814697,3.2677998542785645 -5.921000003814697,0 C-5.921000003814697,-3.2677998542785645 -3.2677998542785645,-5.921000003814697 0,-5.921000003814697z"></path></g></g><g transform="matrix(0.800000011920929,0,0,0.800000011920929,508.25457763671875,311.4952697753906)" opacity="1" style="display: none;"><g opacity="1" transform="matrix(1,0,0,1,270.4200134277344,-422.0790100097656)"><path fill="rgb(255,255,255)" fill-opacity="1" d=" M0,-5.921000003814697 C3.2677998542785645,-5.921000003814697 5.921000003814697,-3.2677998542785645 5.921000003814697,0 C5.921000003814697,3.2677998542785645 3.2677998542785645,5.921000003814697 0,5.921000003814697 C-3.2677998542785645,5.921000003814697 -5.921000003814697,3.2677998542785645 -5.921000003814697,0 C-5.921000003814697,-3.2677998542785645 -3.2677998542785645,-5.921000003814697 0,-5.921000003814697z"></path></g></g><g style="display: none;" transform="matrix(0.699999988079071,0,0,0.699999988079071,186.06103515625,299.93316650390625)" opacity="1"><g opacity="1" transform="matrix(1,0,0,1,270.4200134277344,-422.0790100097656)"><path fill="rgb(255,255,255)" fill-opacity="1" d=" M0,-5.921000003814697 C3.2677998542785645,-5.921000003814697 5.921000003814697,-3.2677998542785645 5.921000003814697,0 C5.921000003814697,3.2677998542785645 3.2677998542785645,5.921000003814697 0,5.921000003814697 C-3.2677998542785645,5.921000003814697 -5.921000003814697,3.2677998542785645 -5.921000003814697,0 C-5.921000003814697,-3.2677998542785645 -3.2677998542785645,-5.921000003814697 0,-5.921000003814697z"></path></g></g><g style="display: none;" transform="matrix(0.699999988079071,0,0,0.699999988079071,565.3313598632812,323.9327392578125)" opacity="1"><g opacity="1" transform="matrix(1,0,0,1,270.4200134277344,-422.0790100097656)"><path fill="rgb(255,255,255)" fill-opacity="1" d=" M0,-5.921000003814697 C3.2677998542785645,-5.921000003814697 5.921000003814697,-3.2677998542785645 5.921000003814697,0 C5.921000003814697,3.2677998542785645 3.2677998542785645,5.921000003814697 0,5.921000003814697 C-3.2677998542785645,5.921000003814697 -5.921000003814697,3.2677998542785645 -5.921000003814697,0 C-5.921000003814697,-3.2677998542785645 -3.2677998542785645,-5.921000003814697 0,-5.921000003814697z"></path></g></g><g style="display: none;" transform="matrix(1,0,0,1,66.41998291015625,542.4210205078125)" opacity="1"><g opacity="1" transform="matrix(1,0,0,1,270.4200134277344,-422.0790100097656)"><path fill="rgb(255,255,255)" fill-opacity="1" d=" M0,-5.921000003814697 C3.2677998542785645,-5.921000003814697 5.921000003814697,-3.2677998542785645 5.921000003814697,0 C5.921000003814697,3.2677998542785645 3.2677998542785645,5.921000003814697 0,5.921000003814697 C-3.2677998542785645,5.921000003814697 -5.921000003814697,3.2677998542785645 -5.921000003814697,0 C-5.921000003814697,-3.2677998542785645 -3.2677998542785645,-5.921000003814697 0,-5.921000003814697z"></path></g></g><g style="display: none;" transform="matrix(1,0,0,1,-223.58001708984375,532.4210205078125)" opacity="1"><g opacity="1" transform="matrix(1,0,0,1,270.4200134277344,-422.0790100097656)"><path fill="rgb(255,255,255)" fill-opacity="1" d=" M0,-5.921000003814697 C3.2677998542785645,-5.921000003814697 5.921000003814697,-3.2677998542785645 5.921000003814697,0 C5.921000003814697,3.2677998542785645 3.2677998542785645,5.921000003814697 0,5.921000003814697 C-3.2677998542785645,5.921000003814697 -5.921000003814697,3.2677998542785645 -5.921000003814697,0 C-5.921000003814697,-3.2677998542785645 -3.2677998542785645,-5.921000003814697 0,-5.921000003814697z"></path></g></g><g style="display: block;" transform="matrix(1,0,0,1,-259.8043212890625,418.67742919921875)" opacity="1"><g opacity="1" transform="matrix(1,0,0,1,270.4200134277344,-422.0790100097656)"><path fill="rgb(255,255,255)" fill-opacity="1" d=" M0,-5.921000003814697 C3.2677998542785645,-5.921000003814697 5.921000003814697,-3.2677998542785645 5.921000003814697,0 C5.921000003814697,3.2677998542785645 3.2677998542785645,5.921000003814697 0,5.921000003814697 C-3.2677998542785645,5.921000003814697 -5.921000003814697,3.2677998542785645 -5.921000003814697,0 C-5.921000003814697,-3.2677998542785645 -3.2677998542785645,-5.921000003814697 0,-5.921000003814697z"></path></g></g><g style="display: none;" transform="matrix(1,0,0,1,-260.13873291015625,491.47119140625)" opacity="1"><g opacity="1" transform="matrix(1,0,0,1,270.4200134277344,-422.0790100097656)"><path fill="rgb(255,255,255)" fill-opacity="1" d=" M0,-5.921000003814697 C3.2677998542785645,-5.921000003814697 5.921000003814697,-3.2677998542785645 5.921000003814697,0 C5.921000003814697,3.2677998542785645 3.2677998542785645,5.921000003814697 0,5.921000003814697 C-3.2677998542785645,5.921000003814697 -5.921000003814697,3.2677998542785645 -5.921000003814697,0 C-5.921000003814697,-3.2677998542785645 -3.2677998542785645,-5.921000003814697 0,-5.921000003814697z"></path></g></g><g style="display: none;" transform="matrix(0.800000011920929,0,0,0.800000011920929,380.5040283203125,458.0052185058594)" opacity="1"><g opacity="1" transform="matrix(1,0,0,1,270.4200134277344,-422.0790100097656)"><path fill="rgb(255,255,255)" fill-opacity="1" d=" M0,-5.921000003814697 C3.2677998542785645,-5.921000003814697 5.921000003814697,-3.2677998542785645 5.921000003814697,0 C5.921000003814697,3.2677998542785645 3.2677998542785645,5.921000003814697 0,5.921000003814697 C-3.2677998542785645,5.921000003814697 -5.921000003814697,3.2677998542785645 -5.921000003814697,0 C-5.921000003814697,-3.2677998542785645 -3.2677998542785645,-5.921000003814697 0,-5.921000003814697z"></path></g></g><g style="display: none;" transform="matrix(0.800000011920929,0,0,0.800000011920929,530.5040283203125,438.0052185058594)" opacity="1"><g opacity="1" transform="matrix(1,0,0,1,270.4200134277344,-422.0790100097656)"><path fill="rgb(255,255,255)" fill-opacity="1" d=" M0,-5.921000003814697 C3.2677998542785645,-5.921000003814697 5.921000003814697,-3.2677998542785645 5.921000003814697,0 C5.921000003814697,3.2677998542785645 3.2677998542785645,5.921000003814697 0,5.921000003814697 C-3.2677998542785645,5.921000003814697 -5.921000003814697,3.2677998542785645 -5.921000003814697,0 C-5.921000003814697,-3.2677998542785645 -3.2677998542785645,-5.921000003814697 0,-5.921000003814697z"></path></g></g><g style="display: block;" transform="matrix(0.699999988079071,0,0,0.699999988079071,343.46771240234375,287.73577880859375)" opacity="1"><g opacity="1" transform="matrix(1,0,0,1,270.4200134277344,-422.0790100097656)"><path fill="rgb(255,255,255)" fill-opacity="1" d=" M0,-5.921000003814697 C3.2677998542785645,-5.921000003814697 5.921000003814697,-3.2677998542785645 5.921000003814697,0 C5.921000003814697,3.2677998542785645 3.2677998542785645,5.921000003814697 0,5.921000003814697 C-3.2677998542785645,5.921000003814697 -5.921000003814697,3.2677998542785645 -5.921000003814697,0 C-5.921000003814697,-3.2677998542785645 -3.2677998542785645,-5.921000003814697 0,-5.921000003814697z"></path></g></g><g style="display: none;" transform="matrix(0.699999988079071,0,0,0.699999988079071,37.54478454589844,415.7945556640625)" opacity="1"><g opacity="1" transform="matrix(1,0,0,1,270.4200134277344,-422.0790100097656)"><path fill="rgb(255,255,255)" fill-opacity="1" d=" M0,-5.921000003814697 C3.2677998542785645,-5.921000003814697 5.921000003814697,-3.2677998542785645 5.921000003814697,0 C5.921000003814697,3.2677998542785645 3.2677998542785645,5.921000003814697 0,5.921000003814697 C-3.2677998542785645,5.921000003814697 -5.921000003814697,3.2677998542785645 -5.921000003814697,0 C-5.921000003814697,-3.2677998542785645 -3.2677998542785645,-5.921000003814697 0,-5.921000003814697z"></path></g></g><g style="display: block;" transform="matrix(0.800000011920929,0,0,0.800000011920929,381.88525390625,376.3150329589844)" opacity="1"><g opacity="1" transform="matrix(1,0,0,1,270.4200134277344,-422.0790100097656)"><path fill="rgb(255,255,255)" fill-opacity="1" d=" M0,-5.921000003814697 C3.2677998542785645,-5.921000003814697 5.921000003814697,-3.2677998542785645 5.921000003814697,0 C5.921000003814697,3.2677998542785645 3.2677998542785645,5.921000003814697 0,5.921000003814697 C-3.2677998542785645,5.921000003814697 -5.921000003814697,3.2677998542785645 -5.921000003814697,0 C-5.921000003814697,-3.2677998542785645 -3.2677998542785645,-5.921000003814697 0,-5.921000003814697z"></path></g></g><g style="display: none;" transform="matrix(0.699999988079071,0,0,0.699999988079071,577.5460205078125,405.79730224609375)" opacity="1"><g opacity="1" transform="matrix(1,0,0,1,270.4200134277344,-422.0790100097656)"><path fill="rgb(255,255,255)" fill-opacity="1" d=" M0,-5.921000003814697 C3.2677998542785645,-5.921000003814697 5.921000003814697,-3.2677998542785645 5.921000003814697,0 C5.921000003814697,3.2677998542785645 3.2677998542785645,5.921000003814697 0,5.921000003814697 C-3.2677998542785645,5.921000003814697 -5.921000003814697,3.2677998542785645 -5.921000003814697,0 C-5.921000003814697,-3.2677998542785645 -3.2677998542785645,-5.921000003814697 0,-5.921000003814697z"></path></g></g><g style="display: block;" transform="matrix(1,0,0,1,-237.94110107421875,390.197265625)" opacity="1"><g opacity="1" transform="matrix(1,0,0,1,270.4200134277344,-422.0790100097656)"><path fill="rgb(255,255,255)" fill-opacity="1" d=" M0,-5.921000003814697 C3.2677998542785645,-5.921000003814697 5.921000003814697,-3.2677998542785645 5.921000003814697,0 C5.921000003814697,3.2677998542785645 3.2677998542785645,5.921000003814697 0,5.921000003814697 C-3.2677998542785645,5.921000003814697 -5.921000003814697,3.2677998542785645 -5.921000003814697,0 C-5.921000003814697,-3.2677998542785645 -3.2677998542785645,-5.921000003814697 0,-5.921000003814697z"></path></g></g><g style="display: none;" transform="matrix(0.800000011920929,0,0,0.800000011920929,526.8236694335938,428.66424560546875)" opacity="1"><g opacity="1" transform="matrix(1,0,0,1,270.4200134277344,-422.0790100097656)"><path fill="rgb(255,255,255)" fill-opacity="1" d=" M0,-5.921000003814697 C3.2677998542785645,-5.921000003814697 5.921000003814697,-3.2677998542785645 5.921000003814697,0 C5.921000003814697,3.2677998542785645 3.2677998542785645,5.921000003814697 0,5.921000003814697 C-3.2677998542785645,5.921000003814697 -5.921000003814697,3.2677998542785645 -5.921000003814697,0 C-5.921000003814697,-3.2677998542785645 -3.2677998542785645,-5.921000003814697 0,-5.921000003814697z"></path></g></g><g style="display: none;" transform="matrix(0.699999988079071,0,0,0.699999988079071,191.57357788085938,384.9112548828125)" opacity="1"><g opacity="1" transform="matrix(1,0,0,1,270.4200134277344,-422.0790100097656)"><path fill="rgb(255,255,255)" fill-opacity="1" d=" M0,-5.921000003814697 C3.2677998542785645,-5.921000003814697 5.921000003814697,-3.2677998542785645 5.921000003814697,0 C5.921000003814697,3.2677998542785645 3.2677998542785645,5.921000003814697 0,5.921000003814697 C-3.2677998542785645,5.921000003814697 -5.921000003814697,3.2677998542785645 -5.921000003814697,0 C-5.921000003814697,-3.2677998542785645 -3.2677998542785645,-5.921000003814697 0,-5.921000003814697z"></path></g></g></g></g></svg>